<?xml version="1.0" encoding="UTF-8" standalone="no"?>
<!DOCTYPE svg PUBLIC "-//W3C//DTD SVG 1.1//EN" "http://www.w3.org/Graphics/SVG/1.1/DTD/svg11.dtd">
<svg version="1.1" xmlns="http://www.w3.org/2000/svg" xmlns:xlink="http://www.w3.org/1999/xlink" preserveAspectRatio="xMidYMid meet" viewBox="-2.5 -2.499999999999986 205.49999999999997 205.5" width="200" height="200"><defs><path d="M200 100C200 155.19 155.19 200 100 200C44.81 200 0 155.19 0 100C0 44.81 44.81 0 100 0C155.19 0 200 44.81 200 100Z" id="gbdmEUGQr"></path><path d="M117.28 87.95L57.82 170L42.45 161.02L101.9 78.97L117.28 87.95Z" id="a1qlDvqsp"></path><path d="M153.16 67.03C145.07 78.19 128.54 81.43 116.26 74.26C103.98 67.09 100.58 52.2 108.67 41.04C116.76 29.88 133.29 26.64 145.57 33.81C157.85 40.98 161.25 55.87 153.16 67.03Z" id="b37zVk4cwm"></path><path d="M136.76 86.23L130.09 95.43L89.09 71.49L95.76 62.28L136.76 86.23Z" id="b5ymJXNue"></path><path d="M153.74 52.73C150.74 56.87 144.45 57.98 139.7 55.2C134.95 52.43 133.53 46.82 136.53 42.68C139.53 38.54 145.82 37.43 150.57 40.21C155.32 42.98 156.74 48.59 153.74 52.73Z" id="b8kHadwW40"></path><path d="M118.23 63.16C116.15 66.03 111.98 66.9 108.91 65.11C105.84 63.32 105.04 59.54 107.12 56.67C109.2 53.8 113.38 52.93 116.44 54.72C119.51 56.51 120.31 60.29 118.23 63.16Z" id="b3ns5LdD3I"></path></defs><g><g><use xlink:href="#gbdmEUGQr" opacity="1" fill="#f53b3b" fill-opacity="1"></use><g><use xlink:href="#gbdmEUGQr" opacity="1" fill-opacity="0" stroke="#000000" stroke-width="5" stroke-opacity="1"></use></g></g><g><g><use xlink:href="#a1qlDvqsp" opacity="1" fill-opacity="0" stroke="#000000" stroke-width="5" stroke-opacity="1"></use></g></g><g><g><use xlink:href="#b37zVk4cwm" opacity="1" fill-opacity="0" stroke="#000000" stroke-width="5" stroke-opacity="1"></use></g></g><g><g><use xlink:href="#b5ymJXNue" opacity="1" fill-opacity="0" stroke="#000000" stroke-width="5" stroke-opacity="1"></use></g></g><g><g><use xlink:href="#b8kHadwW40" opacity="1" fill-opacity="0" stroke="#000000" stroke-width="5" stroke-opacity="1"></use></g></g><g><g><use xlink:href="#b3ns5LdD3I" opacity="1" fill-opacity="0" stroke="#000000" stroke-width="5" stroke-opacity="1"></use></g></g></g></svg>