<?xml version="1.0" encoding="UTF-8" standalone="no"?>
<!DOCTYPE svg PUBLIC "-//W3C//DTD SVG 1.1//EN" "http://www.w3.org/Graphics/SVG/1.1/DTD/svg11.dtd">
<svg version="1.1" xmlns="http://www.w3.org/2000/svg" xmlns:xlink="http://www.w3.org/1999/xlink" preserveAspectRatio="xMidYMid meet" viewBox="-0.9999999999999716 -1.0000000000000853 203.99999999999997 204.00000000000006" width="200" height="200"><defs><path d="M200 100C200 155.19 155.19 200 100 200C44.81 200 0 155.19 0 100C0 44.81 44.81 0 100 0C155.19 0 200 44.81 200 100Z" id="a1rb1arCzM"></path><path d="M153.47 66.37L99.12 124.49L75.94 103.66L130.29 45.55L160 36.59L153.47 66.37Z" id="cPptlFnGO"></path><path d="M107.81 132.3L102.5 137.98L61.94 101.53L67.25 95.85L107.81 132.3Z" id="dDpVTETOy"></path><path d="M90.91 127.56L57.38 163.41L40 147.79L73.53 111.94L90.91 127.56Z" id="bYFNfEytV"></path><path d="M89.02 112.48L157.45 39.32" id="a1bXqtnY59"></path></defs><g><g><use xlink:href="#a1rb1arCzM" opacity="1" fill="#3bb6f5" fill-opacity="1"></use></g><g><g><use xlink:href="#cPptlFnGO" opacity="1" fill-opacity="0" stroke="#000000" stroke-width="5" stroke-opacity="1"></use></g></g><g><g><use xlink:href="#dDpVTETOy" opacity="1" fill-opacity="0" stroke="#000000" stroke-width="5" stroke-opacity="1"></use></g></g><g><g><use xlink:href="#bYFNfEytV" opacity="1" fill-opacity="0" stroke="#000000" stroke-width="5" stroke-opacity="1"></use></g></g><g><g><use xlink:href="#a1bXqtnY59" opacity="1" fill-opacity="0" stroke="#000000" stroke-width="5" stroke-opacity="1"></use></g></g></g></svg>